<?xml version="1.0" standalone="no"?>
<!DOCTYPE svg PUBLIC "-//W3C//DTD SVG 20010904//EN"
 "http://www.w3.org/TR/2001/REC-SVG-20010904/DTD/svg10.dtd">
<svg version="1.0" xmlns="http://www.w3.org/2000/svg"
 width="500.000000pt" height="500.000000pt" viewBox="0 0 500.000000 500.000000"
 preserveAspectRatio="xMidYMid meet">
<g transform="translate(0.000000,500.000000) scale(0.100000,-0.100000)"
fill="#000000" stroke="none">
<path d="M2385 3341 c-93 -23 -197 -104 -250 -195 -41 -70 -24 -66 23 6 105
164 285 218 456 137 103 -48 188 -171 204 -295 5 -45 11 -60 25 -62 35 -7 50
18 43 74 -17 150 -131 285 -275 328 -56 16 -172 20 -226 7z m329 -83 c-3 -4
-2 -8 3 -8 13 0 67 -50 61 -56 -3 -3 -24 12 -47 34 -23 21 -34 39 -26 39 8 0
12 -4 9 -9z m82 -85 c-2 -9 8 -26 20 -37 29 -26 44 -79 20 -70 -9 3 -13 10
-10 15 3 5 0 9 -7 9 -8 0 -7 5 2 17 12 15 12 16 -6 9 -11 -4 -16 -4 -12 0 4 4
0 15 -9 25 -9 10 -14 25 -11 34 8 20 16 19 13 -2z m49 -121 c6 -4 11 -14 12
-22 1 -8 4 -27 8 -42 4 -21 2 -28 -10 -28 -9 0 -15 9 -15 24 0 14 -4 36 -10
50 -9 26 -4 32 15 18z"/>
<path d="M2075 2969 c-4 -6 -7 -25 -7 -44 0 -175 166 -353 347 -371 163 -17
332 71 401 208 30 60 25 63 -9 5 -36 -62 -103 -123 -167 -154 -47 -23 -68 -27
-145 -28 -79 0 -97 3 -147 28 -112 55 -190 163 -208 285 -5 34 -11 66 -15 72
-8 13 -42 13 -50 -1z m28 -24 c-3 -9 -8 -14 -10 -11 -3 3 -2 9 2 15 9 16 15
13 8 -4z m14 -54 c3 -55 8 -76 21 -84 13 -8 8 -27 -8 -27 -9 0 -22 32 -25 60
-1 8 -5 29 -9 46 -5 22 -3 31 6 31 7 0 14 -12 15 -26z m49 -123 c4 -7 3 -8 -4
-4 -7 4 -12 1 -12 -8 0 -9 7 -16 15 -16 8 0 15 -4 15 -10 0 -5 10 -19 23 -30
12 -12 22 -25 22 -31 0 -5 5 -9 10 -10 6 0 17 -6 25 -13 8 -8 22 -16 30 -19
12 -4 12 -6 -2 -6 -9 -1 -20 4 -23 9 -4 6 -10 8 -14 5 -8 -4 -46 31 -46 44 0
3 -3 5 -7 4 -11 -4 -69 78 -62 88 7 12 21 11 30 -3z"/>
<path d="M2776 2653 c-6 -14 -5 -15 5 -6 7 7 10 15 7 18 -3 3 -9 -2 -12 -12z"/>
<path d="M965 2341 c-11 -5 -29 -19 -40 -31 -18 -20 -20 -38 -23 -179 -4 -239
-1 -241 278 -240 213 0 247 7 272 58 9 19 15 38 12 43 -3 4 -98 8 -212 8 -114
0 -213 4 -220 8 -9 6 -12 37 -10 118 l3 109 220 5 220 5 -3 25 c-2 14 -15 36
-28 50 -24 25 -25 25 -237 27 -116 1 -221 -2 -232 -6z m449 -30 c52 -49 43
-51 -178 -51 -173 0 -207 -2 -220 -16 -13 -12 -16 -38 -16 -122 0 -59 5 -114
10 -122 8 -13 44 -15 222 -15 231 0 239 -2 182 -52 -24 -22 -32 -23 -218 -23
-109 0 -206 5 -223 10 -49 18 -57 45 -57 204 0 215 0 216 286 213 182 -2 187
-3 212 -26z"/>
<path d="M1507 2343 c-17 -17 0 -43 103 -155 l110 -119 0 -74 c0 -84 13 -105
64 -105 47 0 56 15 56 97 l0 73 115 125 c63 69 115 129 115 133 0 19 -27 32
-68 32 -43 0 -47 -3 -131 -91 l-87 -92 -51 54 c-27 30 -65 71 -83 92 -29 34
-36 37 -84 37 -29 0 -56 -3 -59 -7z m184 -103 c46 -49 87 -90 91 -90 5 0 48
41 95 90 82 87 87 90 129 90 24 0 44 -4 44 -9 0 -4 -49 -61 -109 -126 l-109
-118 -7 -84 -7 -84 -36 3 -37 3 -3 80 -3 79 -82 90 c-45 50 -94 101 -109 114
-42 35 -36 52 16 52 43 0 47 -3 127 -90z"/>
<path d="M2123 2333 c-14 -5 -18 -59 -5 -66 4 -3 88 -8 187 -12 241 -8 225 -3
225 -73 0 -31 -4 -63 -9 -70 -6 -10 -36 -12 -124 -10 -65 2 -117 1 -117 -2 0
-3 45 -47 100 -99 95 -88 103 -93 154 -98 32 -3 56 -1 60 5 3 6 -16 29 -44 53
-27 23 -47 45 -45 49 3 4 18 10 35 14 17 3 42 18 55 32 23 25 25 35 25 119 0
107 -15 137 -78 155 -37 10 -396 13 -419 3z m80 -21 c59 13 288 7 283 -8 -3
-7 3 -10 16 -6 15 4 17 7 6 13 -15 10 -7 12 16 3 9 -3 13 -11 9 -17 -4 -7 0
-8 12 -4 19 8 48 -10 39 -24 -3 -5 -1 -9 5 -9 16 0 18 -34 1 -48 -8 -8 -9 -11
-2 -7 10 5 12 -7 9 -57 -4 -76 -10 -88 -43 -88 -13 0 -24 -4 -24 -10 0 -5 -6
-10 -13 -10 -8 0 -19 -11 -24 -23 -9 -20 -8 -26 8 -37 13 -10 15 -17 8 -26 -8
-9 -5 -11 10 -7 12 3 21 1 21 -6 0 -19 -45 -17 -65 2 -6 7 -28 27 -49 45 -21
18 -34 37 -30 44 4 7 3 8 -4 4 -7 -4 -12 -1 -12 8 0 9 -9 16 -20 16 -11 0 -20
3 -20 8 0 4 42 7 94 7 52 0 93 2 91 4 -3 2 2 13 10 25 8 11 15 40 15 64 0 32
3 41 13 36 8 -5 8 -2 -2 9 -9 11 -10 17 -2 17 6 0 11 4 11 10 0 5 -6 7 -14 4
-7 -3 -21 7 -30 21 -9 14 -21 23 -27 20 -11 -7 -192 -10 -205 -3 -5 2 -44 4
-86 3 -56 -1 -78 2 -78 11 0 14 23 25 28 14 2 -4 22 -3 45 2z"/>
<path d="M2547 2276 c-3 -8 0 -13 6 -12 15 2 22 19 9 24 -5 1 -12 -4 -15 -12z"/>
<path d="M2567 2121 c-3 -13 -1 -18 9 -14 7 2 10 11 7 19 -7 19 -10 18 -16 -5z"/>
<path d="M2475 2039 c-4 -6 -5 -12 -2 -15 2 -3 7 2 10 11 7 17 1 20 -8 4z"/>
<path d="M2717 2333 c-4 -3 -7 -98 -7 -209 0 -191 1 -204 19 -214 13 -7 28 -7
45 0 l26 10 0 204 c0 177 -2 205 -16 210 -21 8 -59 8 -67 -1z m59 -211 c1
-159 -1 -192 -12 -188 -8 3 -14 1 -14 -5 0 -6 -4 -7 -10 -4 -5 3 -10 13 -10
21 0 8 4 13 9 10 5 -4 6 9 1 29 -10 44 -13 274 -4 310 4 17 12 25 23 23 14 -3
16 -26 17 -196z"/>
<path d="M2894 2326 c-3 -8 -4 -93 -2 -190 4 -238 -16 -220 258 -224 200 -3
212 -2 240 18 17 12 34 36 40 58 11 40 14 282 4 320 -7 25 -41 37 -73 27 -20
-6 -21 -13 -21 -170 0 -139 -2 -164 -16 -169 -9 -3 -82 -6 -164 -6 -122 0
-151 3 -164 16 -13 13 -16 43 -16 169 0 130 -2 154 -16 159 -28 11 -64 6 -70
-8z m69 -40 c-2 -3 -3 -25 -3 -48 0 -33 -3 -39 -11 -28 -8 12 -9 11 -5 -5 3
-11 8 -51 12 -90 9 -99 11 -107 33 -128 17 -17 36 -19 172 -21 148 -1 155 0
177 22 12 13 22 28 22 35 1 7 1 69 1 140 0 113 1 127 17 128 14 0 14 2 -2 8
-19 7 -19 8 2 13 12 4 25 2 28 -3 6 -11 7 -262 1 -294 -11 -52 -26 -73 -59
-78 -68 -11 -407 -2 -420 11 -9 9 -13 60 -14 177 -1 146 0 165 15 166 10 0 11
2 4 6 -7 2 -13 9 -13 15 0 6 10 4 23 -4 12 -9 21 -18 20 -22z"/>
<path d="M2941 2264 c0 -11 3 -14 6 -6 3 7 2 16 -1 19 -3 4 -6 -2 -5 -13z"/>
<path d="M2932 2145 c0 -16 2 -22 5 -12 2 9 2 23 0 30 -3 6 -5 -1 -5 -18z"/>
<path d="M2930 1975 c0 -14 4 -25 9 -25 4 0 6 11 3 25 -2 14 -6 25 -8 25 -2 0
-4 -11 -4 -25z"/>
<path d="M3583 2325 c-74 -32 -85 -165 -17 -210 28 -18 157 -35 271 -35 90 0
123 -14 123 -51 0 -15 -7 -29 -16 -33 -9 -3 -108 -6 -220 -6 -117 0 -204 -4
-204 -9 0 -23 15 -43 41 -56 22 -12 70 -15 214 -15 251 0 275 11 275 127 0 38
-5 50 -33 78 -36 36 -49 39 -247 50 -58 4 -115 9 -127 12 -27 6 -38 35 -23 63
10 19 20 20 220 20 121 0 210 4 210 9 0 23 -15 43 -41 56 -39 21 -379 21 -426
0z m411 -17 c11 -3 20 -11 21 -19 2 -11 -7 -13 -39 -10 -22 2 -44 9 -48 15 -6
8 -8 7 -8 -1 0 -8 -14 -13 -37 -13 -28 0 -34 3 -23 10 13 8 12 10 -2 10 -10 0
-18 -4 -18 -9 0 -6 -8 -8 -17 -7 -10 2 -55 0 -101 -3 -75 -6 -85 -4 -102 14
l-19 20 187 -1 c103 -1 196 -4 206 -6z m-376 -21 c11 -9 11 -13 -4 -24 -12 -9
-19 -27 -20 -53 0 -22 1 -38 4 -35 3 3 13 -2 23 -11 11 -10 44 -17 95 -20 201
-12 219 -14 216 -24 -1 -8 4 -7 19 0 23 13 38 5 22 -11 -14 -14 -45 -18 -58
-9 -5 5 -50 9 -100 9 -49 0 -100 1 -112 1 -13 0 -23 5 -23 10 0 7 -6 7 -18 1
-11 -6 -28 -5 -50 4 -17 8 -32 11 -32 7 -1 -4 -9 3 -19 15 -14 16 -17 33 -14
65 6 56 11 71 23 63 5 -3 7 0 4 8 -6 17 25 19 44 4z m389 -184 c-4 -3 1 -12
11 -20 16 -12 16 -13 -3 -7 -17 5 -18 4 -5 -8 9 -7 15 -19 14 -25 -1 -7 -2
-27 -3 -44 -1 -27 -4 -30 -23 -24 -22 7 -22 6 -4 -7 18 -14 18 -15 -10 -23
-41 -10 -385 -14 -411 -4 -23 8 -32 29 -12 29 5 0 7 -4 4 -10 -3 -5 -1 -10 4
-10 6 0 11 4 11 9 0 5 83 8 184 7 101 0 182 2 180 6 -2 4 5 9 16 13 11 3 20
13 20 22 0 9 8 22 18 30 14 12 14 14 1 10 -22 -7 -44 30 -28 49 6 8 18 14 27
14 8 0 12 -3 9 -7z"/>
<path d="M3650 2306 c0 -2 7 -7 16 -10 8 -3 12 -2 9 4 -6 10 -25 14 -25 6z"/>
<path d="M3950 2300 c8 -5 20 -10 25 -10 6 0 3 5 -5 10 -8 5 -19 10 -25 10 -5
0 -3 -5 5 -10z"/>
<path d="M3561 2186 c-9 -10 -7 -17 6 -27 16 -12 17 -12 6 2 -10 12 -10 18 -1
27 7 7 9 12 6 12 -3 0 -11 -6 -17 -14z"/>
<path d="M3638 2133 c7 -3 16 -2 19 1 4 3 -2 6 -13 5 -11 0 -14 -3 -6 -6z"/>
<path d="M1875 2060 c-3 -6 1 -7 9 -4 18 7 21 14 7 14 -6 0 -13 -4 -16 -10z"/>
<path d="M899 1893 c-13 -16 -12 -17 4 -4 9 7 17 15 17 17 0 8 -8 3 -21 -13z"/>
</g>
</svg>
